<svg width="60" height="60" viewBox="0 0 60 60" fill="none" xmlns="http://www.w3.org/2000/svg">
<circle opacity="0.24" cx="30" cy="30" r="29.5" fill="white" fill-opacity="0.1" stroke="white"/>
<path d="M41.3066 20.4213C41.0653 20.4213 40.8253 20.336 40.6333 20.16C37.6906 17.4773 33.9146 16 29.9999 16C26.0853 16 22.3093 17.4773 19.3666 20.1613C18.9573 20.5333 18.3253 20.5027 17.9533 20.096C17.5813 19.688 17.6106 19.0547 18.0186 18.6827C21.332 15.6627 25.5866 14 29.9999 14C34.4133 14 38.6679 15.6627 41.9813 18.6827C42.3893 19.0547 42.4186 19.6867 42.0466 20.096C41.8493 20.312 41.5786 20.4213 41.3066 20.4213Z" fill="white"/>
<path d="M43.0009 26.956C42.6796 26.956 42.3623 26.8013 42.1703 26.5133C39.3943 22.38 34.8449 19.912 30.001 19.912C25.157 19.912 20.6076 22.38 17.8316 26.5133C17.5236 26.9733 16.901 27.096 16.4436 26.7867C15.985 26.4787 15.8623 25.8573 16.1703 25.3987C19.3183 20.712 24.489 17.9133 30.001 17.9133C35.5129 17.9133 40.6836 20.712 43.8316 25.4C44.1396 25.8587 44.0183 26.48 43.5583 26.788C43.3876 26.9013 43.1943 26.956 43.0009 26.956Z" fill="white"/>
<path d="M26.8419 46C26.5846 46 26.3272 45.9013 26.1312 45.704C25.9126 45.484 20.7886 40.2533 20.7886 35.2173C20.7886 29.9906 24.9206 25.7386 30.0006 25.7386C35.0806 25.7386 39.2126 29.9906 39.2126 35.2173C39.2126 35.7693 38.7646 36.2173 38.2126 36.2173C37.6606 36.2173 37.2126 35.7693 37.2126 35.2173C37.2126 31.0933 33.9779 27.7386 30.0006 27.7386C26.0232 27.7386 22.7886 31.0933 22.7886 35.2173C22.7886 39.44 27.5046 44.248 27.5526 44.296C27.9419 44.688 27.9392 45.3213 27.5459 45.7106C27.3512 45.904 27.0966 46 26.8419 46Z" fill="white"/>
<path d="M33.1589 45.9999C30.7535 45.9999 25.1776 41.4239 24.6376 36.3279C24.4469 34.5266 25.0202 32.6839 26.1695 31.3986C27.1695 30.2813 28.5202 29.6613 29.9722 29.6533H30.0002C31.4162 29.6533 32.7549 30.2093 33.7735 31.2213C34.8375 32.2786 35.4229 33.6986 35.4229 35.2186V35.8706C35.4229 37.4773 36.6735 38.7839 38.2122 38.7839C39.7509 38.7839 41.0029 37.4773 41.0029 35.8706V35.6426C41.0029 29.4159 36.4922 24.2359 30.7335 23.8519C27.7309 23.6479 24.8509 24.6853 22.6282 26.7626C20.3216 28.9199 18.9989 32.0026 18.9989 35.2186C18.9989 37.8639 19.8949 40.4413 21.5216 42.4759C21.8656 42.9079 21.7962 43.5359 21.3642 43.8813C20.9336 44.2266 20.3042 44.1559 19.9576 43.7239C18.0496 41.3359 16.9976 38.3146 16.9976 35.2173C16.9976 31.4493 18.5522 27.8346 21.2602 25.3013C23.8909 22.8399 27.3015 21.6159 30.8642 21.8546C37.6695 22.3093 43.0015 28.3653 43.0015 35.6413V35.8693C43.0015 38.5786 40.8522 40.7826 38.2109 40.7826C35.5695 40.7826 33.4215 38.5786 33.4215 35.8693V35.2173C33.4215 34.2333 33.0455 33.3186 32.3629 32.6386C31.7229 32.0013 30.8842 31.6519 30.0002 31.6519C29.9935 31.6519 29.9882 31.6519 29.9815 31.6519C28.8549 31.6573 28.0962 32.2426 27.6589 32.7319C26.8789 33.6026 26.4922 34.8693 26.6242 36.1173C27.0655 40.2746 31.8429 44.0013 33.1575 44.0013C33.7095 44.0013 34.1575 44.4493 34.1575 45.0013C34.1575 45.5532 33.7109 45.9999 33.1589 45.9999Z" fill="white"/>
<path d="M36.8694 44.044C33.2907 44.044 28.9214 39.6707 28.9214 34.5654C28.9214 34.0134 29.3694 33.5654 29.9214 33.5654C30.4734 33.5654 30.9214 34.0134 30.9214 34.5654C30.9214 38.5227 34.248 42.044 36.8694 42.044C37.4214 42.044 37.8694 42.492 37.8694 43.044C37.8694 43.596 37.4214 44.044 36.8694 44.044Z" fill="white"/>
</svg>
