<svg width="24" height="24" viewBox="0 0 24 24" fill="none" xmlns="http://www.w3.org/2000/svg">
<path d="M6.97158 0H17.0284C20.8725 0 24 3.12745 24 6.97162V17.0284C24 20.8725 20.8725 24 17.0284 24H6.97162C3.12745 24 0 20.8725 0 17.0284V6.97162C0 3.12745 3.12745 0 6.97158 0ZM1.875 17.0284C1.875 19.8387 4.16133 22.125 6.97158 22.125H17.0284C19.8387 22.125 22.125 19.8387 22.125 17.0284V6.97162C22.125 4.16133 19.8387 1.875 17.0284 1.875H6.97162C4.16133 1.875 1.875 4.16133 1.875 6.97162V17.0284Z" fill="#8FFFE4"/>
<path d="M12 5.53125C15.5669 5.53125 18.4688 8.43309 18.4688 12C18.4688 15.5669 15.5669 18.4688 12 18.4688C8.43309 18.4688 5.53125 15.5669 5.53125 12C5.53125 8.43309 8.43309 5.53125 12 5.53125ZM12 16.5938C14.533 16.5938 16.5938 14.533 16.5938 12C16.5938 9.46702 14.533 7.40625 12 7.40625C9.46702 7.40625 7.40625 9.46702 7.40625 12C7.40625 14.533 9.46702 16.5938 12 16.5938Z" fill="#8FFFE4"/>
<path d="M5.4375 6.375C4.91973 6.375 4.5 5.95527 4.5 5.4375C4.5 4.91973 4.91973 4.5 5.4375 4.5C5.95527 4.5 6.375 4.91973 6.375 5.4375C6.375 5.95527 5.95527 6.375 5.4375 6.375Z" fill="#8FFFE4"/>
</svg>
