<svg width="26" height="26" viewBox="0 0 26 26" fill="none" xmlns="http://www.w3.org/2000/svg">
<g clip-path="url(#clip0)">
<path d="M26 5.22866C24.3645 5.30404 24.4002 5.29789 24.2153 5.31337L25.1839 2.54718C25.1839 2.54718 22.1605 3.65941 21.394 3.85836C19.381 2.04908 16.3889 1.96914 14.2497 3.2839C12.4979 4.36082 11.5577 6.21017 11.8713 8.37175C8.46202 7.89865 5.58951 6.28257 3.32161 3.55824L2.60432 2.69674L2.06834 3.68103C1.39093 4.92477 1.16598 6.34684 1.43477 7.68521C1.54506 8.23428 1.73251 8.75796 1.99217 9.24832L1.37685 9.00988L1.30385 10.038C1.22986 11.0824 1.57759 12.3015 2.23418 13.2989C2.41905 13.5798 2.65709 13.8883 2.9588 14.1925L2.64082 14.1438L3.02882 15.3218C3.53882 16.8697 4.59808 18.0672 5.97275 18.7329C4.59987 19.3155 3.49081 19.6872 1.66785 20.2869L0 20.8352L1.5405 21.6774C2.12785 21.9986 4.20334 23.0711 6.25403 23.3929C10.8124 24.1078 15.9447 23.5256 19.3998 20.4138C22.31 17.7929 23.2649 14.0646 23.0666 10.1848C23.0366 9.59744 23.1975 9.03686 23.5196 8.60661C24.1649 7.74511 25.996 5.23442 26 5.22866ZM22.3015 7.69413C21.7665 8.40844 21.4985 9.32072 21.5465 10.2626C21.7467 14.1761 20.6819 17.2111 18.3814 19.2828C15.6942 21.703 11.3597 22.653 6.48988 21.8891C5.60795 21.7508 4.69647 21.4412 3.94209 21.1319C5.47049 20.6061 6.65076 20.1373 8.55684 19.2352L11.2177 17.9758L8.27992 17.7877C6.87273 17.6976 5.70099 17.0157 4.98073 15.9084C5.36317 15.8862 5.73193 15.8243 6.0991 15.7219L8.901 14.9416L6.0757 14.2497C4.70282 13.9134 3.92027 13.092 3.50549 12.462C3.23314 12.048 3.05521 11.6239 2.94849 11.233C3.23175 11.3089 3.56203 11.3631 4.09463 11.4158L6.70967 11.6745L4.63776 10.0582C3.14487 8.89384 2.5466 7.14447 2.98518 5.46273C7.64436 10.2953 13.1149 9.93208 13.6655 10.0598C13.5443 8.88253 13.5411 8.87976 13.5094 8.76768C12.8042 6.27484 14.3497 5.00908 15.0467 4.58061C16.5027 3.68579 18.8139 3.5509 20.4147 5.02514C20.7604 5.34332 21.2279 5.46849 21.6655 5.35978C22.0583 5.26219 22.3806 5.15884 22.6962 5.04637L22.0393 6.9225L22.8779 6.92309C22.7196 7.13534 22.5298 7.38945 22.3015 7.69413Z" fill="#1A1D22"/>
</g>
<defs>
<clipPath id="clip0">
<rect width="26" height="26" fill="white"/>
</clipPath>
</defs>
</svg>
