<svg width="80" height="80" viewBox="0 0 80 80" fill="none" xmlns="http://www.w3.org/2000/svg">
<circle cx="40" cy="40" r="40" fill="#B7EBE5"/>
<path d="M53.6653 28.7506C52.0869 26.9768 49.8974 26 47.5 26C44.1283 26 41.9936 27.9945 40.7966 29.6677C40.486 30.1019 40.2218 30.5372 40 30.9469C39.7782 30.5372 39.5141 30.1019 39.2034 29.6677C38.0064 27.9945 35.8717 26 32.5 26C30.1026 26 27.9131 26.9769 26.3347 28.7506C24.8292 30.4426 24 32.7088 24 35.1315C24 37.7687 25.0396 40.2215 27.2716 42.8506C29.2664 45.2004 32.1362 47.6225 35.4594 50.4273C36.6977 51.4724 37.9782 52.5532 39.3416 53.7346L39.3825 53.7702C39.5592 53.9234 39.7796 54 40 54C40.2204 54 40.4408 53.9234 40.6175 53.7702L40.6584 53.7346C42.0217 52.5532 43.3023 51.4725 44.5408 50.4271C47.8638 47.6226 50.7336 45.2005 52.7284 42.8506C54.9604 40.2215 56 37.7687 56 35.1315C56 32.7088 55.1708 30.4426 53.6653 28.7506ZM43.3246 49.0138C42.2571 49.9147 41.1584 50.8419 40 51.8394C38.8416 50.8421 37.7429 49.9148 36.6753 49.0137C30.1716 43.5246 25.875 39.8984 25.875 35.1315C25.875 33.1611 26.5378 31.3311 27.7414 29.9784C28.9587 28.6105 30.6487 27.8571 32.5 27.8571C35.0706 27.8571 36.7323 29.4255 37.6735 30.7413C38.5178 31.9214 38.9584 33.1111 39.1086 33.5677C39.2343 33.9499 39.5941 34.2086 40 34.2086C40.4059 34.2086 40.7657 33.9499 40.8914 33.5677C41.0416 33.1111 41.4822 31.9214 42.3265 30.7413C43.2677 29.4255 44.9294 27.8571 47.5 27.8571C49.3513 27.8571 51.0413 28.6105 52.2586 29.9784C53.4622 31.3311 54.125 33.1611 54.125 35.1315C54.125 39.8984 49.8284 43.5246 43.3246 49.0138Z" fill="#1A1D22"/>
</svg>
