<svg width="80" height="80" viewBox="0 0 80 80" fill="none" xmlns="http://www.w3.org/2000/svg">
<circle cx="40" cy="40" r="40" fill="#B7EBE5"/>
<path d="M54.1716 26.0282H50.9717V22.8285C50.9718 21.8228 50.1489 21 49.1437 21H25.8304C24.8247 21 24.002 21.8228 24.002 22.8285V52.0839C24.002 53.0895 24.8247 53.9124 25.8304 53.9124H29.0303V57.1122C29.0303 58.1178 29.8527 58.9407 30.8588 58.9407H46.4003C47.4055 58.9407 48.828 58.3766 49.5598 57.6878L54.6677 52.8798C55.4004 52.191 55.9992 50.8041 55.9992 49.7984L56.0001 27.8569C56 26.8511 55.1772 26.0282 54.1716 26.0282ZM29.0301 27.8568V52.541H25.8304C25.5826 52.541 25.3733 52.3317 25.3733 52.084V22.8285C25.3733 22.5808 25.5826 22.3714 25.8304 22.3714H49.1438C49.391 22.3714 49.6008 22.5808 49.6008 22.8285V26.0283H30.8586C29.8525 26.0283 29.0301 26.8511 29.0301 27.8568ZM53.7278 51.8814L48.6199 56.6889C48.5153 56.7873 48.379 56.8837 48.2286 56.9755V52.7696C48.2286 52.4555 48.3552 52.173 48.5641 51.9627C48.7749 51.7538 49.0574 51.6268 49.3714 51.6268H53.9449C53.874 51.7231 53.8013 51.8118 53.7278 51.8814ZM54.6277 49.7983C54.6277 49.934 54.603 50.0913 54.5656 50.2553H49.3713C47.984 50.2581 46.86 51.3821 46.8572 52.7695V57.5138C46.694 57.5468 46.5367 57.5691 46.4001 57.5691H30.8586V57.5692C30.6104 57.5692 30.4015 57.3599 30.4015 57.1121V27.8567C30.4015 27.609 30.6104 27.3997 30.8586 27.3997H54.1715C54.4192 27.3997 54.6285 27.609 54.6285 27.8567L54.6277 49.7983Z" fill="black"/>
<path d="M49.1436 32.4277H35.8873C35.5084 32.4277 35.2017 32.7344 35.2017 33.1134C35.2017 33.4924 35.5084 33.7991 35.8873 33.7991H49.1436C49.5222 33.7991 49.8293 33.4924 49.8293 33.1134C49.8293 32.7344 49.5222 32.4277 49.1436 32.4277Z" fill="black"/>
<path d="M49.1436 41.5698H35.8873C35.5084 41.5698 35.2017 41.8765 35.2017 42.2555C35.2017 42.6345 35.5084 42.9412 35.8873 42.9412H49.1436C49.5222 42.9412 49.8293 42.6345 49.8293 42.2555C49.8293 41.8765 49.5222 41.5698 49.1436 41.5698Z" fill="black"/>
<path d="M43.2011 46.1414H35.8873C35.5084 46.1414 35.2017 46.4481 35.2017 46.827C35.2017 47.206 35.5084 47.5127 35.8873 47.5127H43.2011C43.5796 47.5127 43.8864 47.206 43.8864 46.827C43.8864 46.4481 43.5796 46.1414 43.2011 46.1414Z" fill="black"/>
<path d="M49.1436 36.9988H35.8873C35.5084 36.9988 35.2017 37.3055 35.2017 37.6845C35.2017 38.0634 35.5084 38.3701 35.8873 38.3701H49.1436C49.5222 38.3701 49.8293 38.0634 49.8293 37.6845C49.8293 37.3055 49.5222 36.9988 49.1436 36.9988Z" fill="black"/>
</svg>
