<svg width="80" height="80" viewBox="0 0 80 80" fill="none" xmlns="http://www.w3.org/2000/svg">
<circle cx="40" cy="40" r="40" fill="#B7EBE5"/>
<path d="M37.2955 22.1986C37.0202 22.4687 36.7931 22.7737 36.6124 23.1087C36.4904 23.3349 34.447 28.2916 34.447 28.2916C32.8817 32.0439 30.6063 35.4001 27.6841 38.2669L26.2563 39.6676C23.2824 42.5852 23.2432 47.3074 26.169 50.1944C27.5963 51.6028 29.4962 52.3782 31.5185 52.3782C31.5205 52.3782 31.5226 52.3782 31.5247 52.3782C32.6454 52.3782 33.7286 52.1391 34.7149 51.687L37.3654 54.2872C37.5059 54.4252 37.6902 54.4941 37.8744 54.4941C38.0436 54.4941 38.2123 54.4352 38.3477 54.3189L42.0799 57.9802C42.7729 58.6601 43.6831 59 44.5934 59C45.5037 59 46.414 58.6601 47.107 57.9802C48.4929 56.6205 48.4929 54.4082 47.107 53.0485L43.3766 49.3889L43.8809 48.8942C44.0159 48.7618 44.0917 48.5821 44.0917 48.3948C44.0917 48.2075 44.0159 48.0279 43.8809 47.8955L41.782 45.8365C43.8531 44.3247 46.109 43.0749 48.5267 42.1042C48.5267 42.1042 53.5661 40.1154 53.9645 39.8969C54.3821 39.6679 54.7379 39.3102 54.7379 39.3102C57.4663 36.8155 55.6102 30.938 50.7199 26.1404C45.8295 21.3427 39.9328 19.6113 37.2955 22.1986ZM35.9915 50.9421C36.2961 50.7215 36.5863 50.4774 36.8591 50.2098L38.3584 48.7389C38.5861 48.5155 38.8178 48.2975 39.0514 48.0819L40.862 49.8583L37.8744 52.7892L35.9915 50.9421ZM43.0979 56.9816L39.3675 53.3219L40.7854 51.9309L44.5161 55.591C44.9154 55.9828 45.1353 56.5037 45.1353 57.0578C45.1353 57.0594 45.1353 57.061 45.1353 57.0626C45.1346 57.3574 44.8793 57.588 44.5789 57.5864C44.0421 57.5834 43.5066 57.3825 43.0979 56.9816ZM46.0889 54.0473C46.733 54.6792 46.8716 55.62 46.5094 56.3874C46.376 55.7115 46.0413 55.0899 45.5341 54.5923L41.8033 50.9323L42.3585 50.3876L46.0889 54.0473ZM42.3538 48.3948L41.88 48.8596L40.1236 47.1364C40.2939 46.9932 40.4651 46.8512 40.6383 46.712L42.3538 48.3948ZM47.9813 40.797C43.9786 42.404 40.3985 44.74 37.3404 47.7402L35.8411 49.2111C34.6876 50.3427 33.1549 50.9658 31.5242 50.9658C31.5224 50.9658 31.5207 50.9658 31.5191 50.9658C29.8824 50.9658 28.3449 50.3382 27.1899 49.1986C24.8223 46.8623 24.8601 43.0348 27.2743 40.6664L28.702 39.2657C31.7602 36.2655 34.1413 32.7533 35.7794 28.8266L36.3459 27.4687C36.9791 29.9581 38.6995 32.8043 41.3134 35.3685C43.5859 37.5979 46.1863 39.2543 48.6359 40.0326C48.8844 40.1116 49.1288 40.1805 49.369 40.2398L47.9813 40.797ZM42.336 29.9218C42.347 29.9581 42.3572 29.994 42.3693 30.0307C42.66 30.9113 43.2715 31.839 44.0912 32.6433C44.9864 33.5214 45.965 34.1086 46.8632 34.3663L44.7619 36.4278C43.9283 35.8243 43.1106 35.134 42.3314 34.3696C41.5522 33.6051 40.8483 32.8029 40.2332 31.9848L42.336 29.9218ZM48.2808 32.9757L48.2807 32.9756L48.2792 32.9772C47.9155 33.3289 46.4686 32.9781 45.1092 31.6446C44.457 31.0048 43.9575 30.2579 43.7389 29.5955C43.5776 29.1067 43.5827 28.6996 43.7524 28.5331C43.8397 28.4475 43.9916 28.4046 44.1866 28.4046C44.3707 28.4046 44.5932 28.443 44.8354 28.5199C45.5105 28.7344 46.2717 29.2245 46.924 29.8643C48.2851 31.1996 48.642 32.6213 48.2808 32.9757ZM53.7197 38.3115C53.5536 38.4744 53.4753 38.5449 53.1938 38.6974C52.9123 38.8498 52.634 38.9287 52.634 38.9287C51.705 39.2078 50.4745 39.132 49.0795 38.6888C48.0634 38.366 47.0146 37.8717 45.9742 37.2358L49.2966 33.9764C49.2974 33.9757 49.2981 33.9751 49.2989 33.9744C50.3965 32.8975 49.8132 30.7012 47.942 28.8655C47.1222 28.0613 46.1765 27.4614 45.2789 27.1762C44.2174 26.8389 43.3135 26.9661 42.7343 27.5344L42.7339 27.534L39.4095 30.7953C38.7614 29.7747 38.2578 28.746 37.9288 27.7494C37.4762 26.3786 37.3994 25.1696 37.6855 24.2576C37.6855 24.2576 37.779 23.9537 37.8909 23.7653C38.0028 23.5769 38.1463 23.3611 38.3134 23.1972C38.8629 22.6581 39.6557 22.404 40.6036 22.404C43.1014 22.404 46.6748 24.1695 49.7017 27.139C53.8773 31.2355 55.7172 36.3518 53.7197 38.3115Z" fill="black"/>
</svg>
