<svg width="80" height="80" viewBox="0 0 80 80" fill="none" xmlns="http://www.w3.org/2000/svg">
<circle cx="40" cy="40" r="40" fill="#B7EBE5"/>
<path d="M46.5821 28.0112L55.2369 31.0909L55.5088 30.3409C57.0614 26.0653 54.8101 21.3372 50.4941 19.8012L41.1821 16.4879C40.2735 16.1642 39.3272 16 38.3694 16C34.8696 16 31.7233 18.1918 30.5395 21.4544L30.2675 22.2044L39.5345 25.5017C39.7672 25.585 39.8878 25.8392 39.8049 26.0687C39.7231 26.2924 39.4646 26.4185 39.2326 26.3365L29.9649 23.0381L28.4889 27.1063L37.7559 30.4039C37.9887 30.4867 38.1093 30.7409 38.0263 30.9706C37.9442 31.1944 37.6845 31.3205 37.454 31.2385L28.187 27.9401L26.7109 32.0083L35.978 35.3059C36.2107 35.3889 36.3314 35.6429 36.2483 35.8734C36.167 36.097 35.908 36.2241 35.6761 36.1403L26.4078 32.842L24.9325 36.9106L34.1991 40.2079C34.3119 40.2477 34.4019 40.3294 34.4533 40.4367C34.504 40.5433 34.51 40.664 34.4694 40.7752C34.3881 40.9986 34.1276 41.1249 33.8972 41.0422L24.609 37.7369L24.3629 38.5383C23.1788 42.3889 24.9792 46.4467 28.4974 48.2423V54.8664L28.5189 54.8742L28.4974 64H34.2521L34.348 57.032L34.374 57.042L40.9981 52.4574C41.2049 52.4722 41.4116 52.4831 41.6191 52.4831C44.9856 52.4831 47.9983 50.4919 49.2945 47.4103L49.6199 46.6373L40.9447 43.5487C40.8324 43.5097 40.7428 43.4287 40.6909 43.3214C40.6405 43.2139 40.635 43.0932 40.6744 42.9819C40.7545 42.7586 41.0163 42.6317 41.2468 42.7142L49.9015 45.7942L51.3777 41.7263L42.7228 38.6462C42.6105 38.6065 42.5209 38.5252 42.4698 38.4182C42.4195 38.3116 42.4132 38.1904 42.4534 38.0787C42.5343 37.8554 42.7952 37.7289 43.0257 37.8118L51.6805 40.8911L53.1566 36.8231L44.5019 33.7434C44.2701 33.6606 44.1489 33.406 44.2323 33.176C44.3132 32.9526 44.5734 32.8269 44.8045 32.9085L53.4587 35.9887L54.9347 31.9205L46.2807 28.8408C46.1684 28.8007 46.0787 28.7203 46.0268 28.6128C45.9766 28.5049 45.9711 28.3846 46.0104 28.2738C46.0899 28.0548 46.3509 27.9291 46.5821 28.0112ZM52.4873 33.9542L45.348 31.4127C44.3059 31.043 43.089 31.6135 42.7165 32.6417C42.3321 33.6995 42.8895 34.868 43.9568 35.2482L51.0969 37.7892L50.7094 38.8568L43.5692 36.3158C42.527 35.9427 41.311 36.5158 40.9385 37.544C40.7521 38.0562 40.7789 38.6097 41.0132 39.1024C41.2481 39.5947 41.6615 39.9672 42.1788 40.1502L49.3189 42.6915L48.9314 43.7588L41.7913 41.2182C40.749 40.8445 39.5323 41.419 39.1597 42.4465C38.9738 42.9586 39.0002 43.5112 39.2344 44.0032C39.4685 44.4958 39.8834 44.8688 40.4001 45.0517L47.4324 47.5549C46.248 49.606 44.0471 50.8919 41.6184 50.8919C40.848 50.8919 40.0868 50.7595 39.3554 50.4988L30.0436 47.1853C26.9491 46.0838 25.162 42.9562 25.7056 39.8237L33.3519 42.5445C34.3966 42.9181 35.6109 42.3437 35.9839 41.3162C36.1698 40.8041 36.143 40.2513 35.9088 39.7583C35.6745 39.2655 35.2606 38.8935 34.7434 38.7093L26.9907 35.9508L27.3777 34.8832L35.1305 37.6422C36.1759 38.0157 37.3903 37.4402 37.7625 36.4139C38.1459 35.3568 37.5891 34.1878 36.5222 33.8075L28.7694 31.0485L29.1565 29.9812L36.9092 32.7399C37.9539 33.1139 39.1682 32.5391 39.5412 31.5116C39.9251 30.455 39.3686 29.2853 38.3009 28.9052L30.5481 26.1466L30.9352 25.0795L38.6872 27.838C39.7326 28.2105 40.9462 27.6389 41.3196 26.6097C41.704 25.5531 41.1466 24.3835 40.0796 24.0033L32.3728 21.2607C33.4996 19.0392 35.8187 17.5948 38.3701 17.5948C39.1412 17.5948 39.9048 17.7272 40.6381 17.9886L49.9493 21.3022C51.6368 21.9024 52.9857 23.117 53.7504 24.7232C54.3989 26.0854 54.5592 27.5917 54.2228 29.0367L47.1275 26.5123C46.0845 26.1403 44.8692 26.7124 44.4959 27.7406C44.3095 28.2532 44.3363 28.8055 44.5705 29.2983C44.8047 29.791 45.2189 30.1631 45.7363 30.3463L52.8756 32.8874L52.4873 33.9542ZM34.3222 55.1341L30.1056 53.6801V49.4744L38.8256 52.0157L34.3222 55.1341ZM32.7446 56.4418L32.6625 62.4088H30.1096L30.1257 55.4719V55.3762L32.7463 56.2791L32.7446 56.4418Z" fill="black"/>
</svg>
