<svg width="80" height="80" viewBox="0 0 80 80" fill="none" xmlns="http://www.w3.org/2000/svg">
<circle r="40" transform="matrix(-4.37114e-08 -1 -1 4.37114e-08 40 40)" fill="url(#paint0_radial)"/>
<path d="M12.4707 31.6H20.1027C21.9267 31.6 23.5347 31.952 24.9267 32.656C26.3347 33.344 27.4227 34.32 28.1907 35.584C28.9747 36.848 29.3667 38.32 29.3667 40C29.3667 41.68 28.9747 43.152 28.1907 44.416C27.4227 45.68 26.3347 46.664 24.9267 47.368C23.5347 48.056 21.9267 48.4 20.1027 48.4H12.4707V31.6ZM19.9107 45.208C21.5907 45.208 22.9267 44.744 23.9187 43.816C24.9267 42.872 25.4307 41.6 25.4307 40C25.4307 38.4 24.9267 37.136 23.9187 36.208C22.9267 35.264 21.5907 34.792 19.9107 34.792H16.3587V45.208H19.9107Z" fill="white"/>
<path d="M44.9712 44.8L38.4192 41.848L37.1712 44.8L35.6832 48.4H31.6992L39.1872 31.6H43.0272L50.5392 48.4H46.4592L44.9712 44.8ZM43.7472 41.848L41.0832 35.416L38.4192 41.848H43.7472Z" fill="white"/>
<path d="M64.62 48.4L61.38 43.72H57.804V48.4H53.916V31.6H61.188C62.676 31.6 63.964 31.848 65.052 32.344C66.156 32.84 67.004 33.544 67.596 34.456C68.188 35.368 68.484 36.448 68.484 37.696C68.484 38.944 68.18 40.024 67.572 40.936C66.98 41.832 66.132 42.52 65.028 43L68.796 48.4H64.62ZM64.548 37.696C64.548 36.752 64.244 36.032 63.636 35.536C63.028 35.024 62.14 34.768 60.972 34.768H57.804V40.624H60.972C62.14 40.624 63.028 40.368 63.636 39.856C64.244 39.344 64.548 38.624 64.548 37.696Z" fill="white"/>
<defs>
<radialGradient id="paint0_radial" cx="0" cy="0" r="1" gradientUnits="userSpaceOnUse" gradientTransform="translate(68 11.5) rotate(137.027) scale(79.9531 68.428)">
<stop stop-color="#C1EACA"/>
<stop offset="0.0001" stop-color="#C2F1CC"/>
<stop offset="0.606128" stop-color="#63ADCD"/>
<stop offset="0.979167" stop-color="#D96B64"/>
</radialGradient>
</defs>
</svg>
