<svg width="40" height="40" viewBox="0 0 40 40" fill="none" xmlns="http://www.w3.org/2000/svg">
<path d="M30.2663 13.6101C30.1712 13.3808 30.0547 13.1648 29.9192 12.9644H31.9531C33.9346 12.9644 35.5468 11.3331 35.5468 9.32804C35.5468 7.32299 33.9346 5.69169 31.9531 5.69169H25.6968C26.0946 5.10655 26.3281 4.39865 26.3281 3.63636C26.3281 1.6313 24.7159 0 22.7343 0H3.59374C1.61218 0 0 1.6313 0 3.63636C0 5.64141 1.61218 7.27271 3.59374 7.27271H9.84998C9.45225 7.85785 9.21873 8.56575 9.21873 9.32804C9.21873 10.0903 9.45217 10.7982 9.84998 11.3834H7.81249C5.83093 11.3834 4.21874 13.0147 4.21874 15.0197C4.21874 16.1713 4.75108 17.1989 5.57929 17.8656C4.75108 18.5323 4.21874 19.5599 4.21874 20.7114C4.21874 21.863 4.75108 22.8905 5.57929 23.5573C4.75108 24.224 4.21874 25.2516 4.21874 26.4031C4.21874 27.5546 4.75108 28.5822 5.57929 29.249C4.75108 29.9157 4.21874 30.9433 4.21874 32.0948C4.21874 34.0999 5.83093 35.7312 7.81249 35.7312H17.0195C19.445 38.3562 22.8954 40 26.7188 40C34.042 40 40 33.9714 40 26.5613C40 20.394 35.8727 15.1844 30.2663 13.6101ZM31.9531 7.27271C33.0731 7.27271 33.9843 8.19477 33.9843 9.32804C33.9843 10.4613 33.0731 11.3834 31.9531 11.3834H26.9531H12.8125C11.6924 11.3834 10.7812 10.4613 10.7812 9.32804C10.7812 8.19477 11.6924 7.27271 12.8125 7.27271H31.9531ZM3.59374 5.69169C2.47367 5.69169 1.5625 4.76963 1.5625 3.63636C1.5625 2.50308 2.47367 1.58102 3.59374 1.58102H22.7343C23.8544 1.58102 24.7656 2.50308 24.7656 3.63636C24.7656 4.76963 23.8544 5.69169 22.7343 5.69169H3.59374ZM7.81249 12.9644H26.9531C27.2678 12.9644 27.5691 13.0384 27.8394 13.1709C27.4699 13.1395 27.0963 13.1226 26.7188 13.1226C23.0512 13.1226 19.7262 14.6348 17.3204 17.0751H7.81249C6.69249 17.0751 5.78124 16.153 5.78124 15.0197C5.78124 13.8865 6.69249 12.9644 7.81249 12.9644ZM7.81249 18.6561H15.9855C15.0986 19.8856 14.4129 21.2723 13.9775 22.7668H7.81249C6.69241 22.7668 5.78124 21.8448 5.78124 20.7114C5.78124 19.5781 6.69241 18.6561 7.81249 18.6561ZM7.81249 24.3478H13.6187C13.5002 25.0682 13.4376 25.8074 13.4376 26.5613C13.4376 27.2052 13.4836 27.8384 13.5705 28.4584H7.81249C6.69241 28.4584 5.78124 27.5365 5.78124 26.4031C5.78124 25.2698 6.69241 24.3478 7.81249 24.3478ZM7.81249 34.1501C6.69241 34.1501 5.78124 33.2282 5.78124 32.0948C5.78124 30.9614 6.69241 30.0395 7.81249 30.0395H13.8895C14.2837 31.5267 14.9241 32.9127 15.764 34.1501H7.81249ZM26.7188 38.419C20.2571 38.419 15 33.0996 15 26.5613C15 20.023 20.2571 14.7036 26.7188 14.7036C33.1805 14.7036 38.4375 20.023 38.4375 26.5613C38.4375 33.0996 33.1805 38.419 26.7188 38.419Z" fill="#8FFFE4"/>
<path d="M22.752 30H20.768C20.6933 30 20.656 29.96 20.656 29.88V24.4C20.656 24.32 20.6933 24.28 20.768 24.28H22.752C23.4293 24.28 23.9573 24.4613 24.336 24.824C24.72 25.1813 24.912 25.704 24.912 26.392V27.912C24.912 28.5893 24.72 29.1067 24.336 29.464C23.9573 29.8213 23.4293 30 22.752 30ZM21.624 25.168V29.096H22.752C23.5253 29.096 23.912 28.704 23.912 27.92V26.384C23.912 25.5733 23.5253 25.168 22.752 25.168H21.624ZM27.0068 27.536V29.12H29.5748C29.6548 29.12 29.6948 29.1573 29.6948 29.232V29.88C29.6948 29.96 29.6548 30 29.5748 30H26.1508C26.0761 30 26.0388 29.96 26.0388 29.88V24.4C26.0388 24.32 26.0761 24.28 26.1508 24.28H29.4628C29.5428 24.28 29.5828 24.32 29.5828 24.4V25.048C29.5828 25.1227 29.5428 25.16 29.4628 25.16H27.0068V26.656H29.2548C29.3348 26.656 29.3748 26.696 29.3748 26.776V27.416C29.3748 27.496 29.3348 27.536 29.2548 27.536H27.0068ZM34.0463 30H30.8383C30.7636 30 30.7263 29.96 30.7263 29.88V24.4C30.7263 24.32 30.7636 24.28 30.8383 24.28H31.5823C31.657 24.28 31.6943 24.32 31.6943 24.4V29.112H34.0463C34.1263 29.112 34.1663 29.1493 34.1663 29.224V29.88C34.1663 29.96 34.1263 30 34.0463 30Z" fill="#8FFFE4"/>
</svg>
