<svg width="40" height="40" viewBox="0 0 40 40" fill="none" xmlns="http://www.w3.org/2000/svg">
<path d="M10.2498 10.7584L9.65974 8.48731L5.90429 9.46144C7.28007 7.61071 9.01362 6.03779 11.0118 4.84483C15.049 2.43457 19.784 1.7395 24.3442 2.88773C28.9045 4.03596 32.7444 6.88999 35.1566 10.9241C36.7982 13.6696 37.6609 16.8017 37.6516 19.9817L39.9998 19.9885C40.0103 16.3826 39.0326 12.832 37.1723 9.72064C34.4385 5.14845 30.0864 1.91383 24.9179 0.612465C19.7493 -0.688903 14.3831 0.0987695 9.80744 2.83063C7.52897 4.19098 5.55278 5.98664 3.98876 8.10165L3.08575 4.62591L0.812988 5.21547L2.75779 12.7017L10.2498 10.7584Z" fill="#8FFFE4"/>
<path d="M29.7433 29.2488L30.3316 31.5203L34.0878 30.5489C32.7106 32.3987 30.976 33.9703 28.9769 35.1618C24.938 37.5691 20.2028 38.2609 15.6431 37.1091C11.0836 35.9575 7.24577 33.1008 4.83667 29.0648C3.19704 26.3181 2.33661 23.1854 2.34827 20.0054L0.000132813 19.9968C-0.013095 23.6029 0.962007 27.1542 2.82001 30.2668C5.5505 34.841 9.90011 38.0789 15.0677 39.384C16.7 39.7963 18.3517 40 19.9925 40C23.5466 40 27.0481 39.0435 30.1798 37.1769C32.4593 35.8182 34.4368 34.0239 36.0024 31.9101L36.9028 35.3865L39.176 34.7986L37.2367 27.3109L29.7433 29.2488Z" fill="#8FFFE4"/>
<path d="M13.652 24H10.957C10.8103 24 10.737 23.9267 10.737 23.78V16.355C10.737 16.2083 10.8103 16.135 10.957 16.135H13.652C15.8153 16.135 16.897 17.202 16.897 19.336V20.799C16.897 21.305 16.8347 21.7523 16.71 22.141C16.5927 22.5223 16.435 22.8303 16.237 23.065C16.0463 23.2923 15.808 23.4793 15.522 23.626C15.236 23.7727 14.9427 23.8717 14.642 23.923C14.3487 23.9743 14.0187 24 13.652 24ZM12.882 18.148V21.987H13.696C14.3633 21.987 14.697 21.635 14.697 20.931V19.193C14.697 18.4963 14.3633 18.148 13.696 18.148H12.882ZM21.3834 20.964V22.075H24.4194C24.566 22.075 24.6394 22.1483 24.6394 22.295V23.78C24.6394 23.9267 24.566 24 24.4194 24H19.4584C19.3117 24 19.2384 23.9267 19.2384 23.78V16.355C19.2384 16.2083 19.3117 16.135 19.4584 16.135H24.2324C24.379 16.135 24.4524 16.2083 24.4524 16.355V17.84C24.4524 17.9867 24.379 18.06 24.2324 18.06H21.3834V19.083H23.8034C23.95 19.083 24.0234 19.1563 24.0234 19.303V20.744C24.0234 20.8907 23.95 20.964 23.8034 20.964H21.3834ZM31.8408 24H27.1218C26.9752 24 26.9018 23.9267 26.9018 23.78V16.355C26.9018 16.2083 26.9752 16.135 27.1218 16.135H28.8268C28.9735 16.135 29.0468 16.2083 29.0468 16.355V21.998H31.8408C31.9875 21.998 32.0608 22.0713 32.0608 22.218V23.78C32.0608 23.9267 31.9875 24 31.8408 24Z" fill="#8FFFE4"/>
</svg>
