<svg width="40" height="40" viewBox="0 0 40 40" fill="none" xmlns="http://www.w3.org/2000/svg">
<path d="M31.2821 12.0443C31.0155 11.9143 30.7309 11.7871 30.4372 11.6617C32.1409 8.35757 31.3425 4.31486 28.5111 1.90578C25.6796 -0.503008 21.5614 -0.642727 18.5731 1.56837C15.5845 3.77978 14.5141 7.75903 15.9896 11.1715C15.5653 11.3319 15.1489 11.5098 14.7389 11.7005C13.1035 10.2044 10.5386 10.0171 9.45234 10.011C8.79557 10.0077 8.23366 10.482 8.12689 11.13C8.02867 11.7578 7.98901 12.3936 8.00884 13.0287C7.47408 13.0583 6.94207 13.1251 6.41616 13.2285C5.77006 13.3542 5.31126 13.9308 5.33414 14.5888C5.3616 15.8939 5.70082 17.1733 6.32312 18.3206C6.24716 18.4055 6.17029 18.4893 6.09494 18.5738C5.66939 19.0485 5.2289 19.5391 4.77956 19.9927C3.91809 20.6532 2.87695 21.0372 1.7928 21.0943C1.2251 21.1715 0.71444 21.4805 0.382848 21.9475C0.050952 22.4149 -0.0725941 22.9985 0.0414953 23.5601L1.12504 29.0116C1.2071 29.4713 1.64759 29.8353 2.43249 30.3444L2.52584 30.4057C3.1152 30.7865 3.74909 31.0931 4.4138 31.3179C4.83294 31.4674 5.24202 31.644 5.63858 31.8466C6.55099 32.3398 7.34291 33.0296 7.95698 33.8658C8.06771 34.0211 8.18546 34.1696 8.31541 34.3209C9.49322 35.5482 11.0054 36.4024 12.6645 36.7773V38.0009C12.6645 39.1049 13.5596 40 14.6635 40H19.3284C20.4324 40 21.3277 39.1049 21.3277 38.0009V37.9161C21.8853 37.942 22.4424 37.9683 23.0049 37.9869C23.3102 37.9976 23.6141 38.0021 23.9145 38.0021C24.3944 38.0021 24.8626 37.9847 25.326 37.9588V38.0009C25.326 39.1049 26.221 40 27.325 40H31.9899C33.0942 40 33.9892 39.1049 33.9892 38.0009V35.4198C37.5208 33.2743 39.7653 29.5232 39.9865 25.3969C40.243 19.9594 36.8259 14.7172 31.2821 12.0443ZM23.3267 1.34751C26.4343 1.33683 29.1352 3.47868 29.8325 6.50705C30.5296 9.53542 29.0376 12.6431 26.2381 13.9924C24.0875 13.5278 21.8795 13.3887 19.6874 13.579C17.2168 11.9714 16.0985 8.92956 16.9392 6.10406C17.7796 3.27887 20.379 1.34324 23.3267 1.34751ZM9.44838 11.3438C10.8455 11.3149 12.2237 11.6699 13.4327 12.371C12.7969 12.7322 12.1554 13.1486 11.5175 13.5992C10.8303 13.288 10.0936 13.1013 9.341 13.0473C9.31903 12.4775 9.35503 11.9067 9.44838 11.3438ZM6.67485 14.5348C7.33894 14.403 8.01494 14.339 8.69215 14.3435C8.70405 14.3435 8.71412 14.3496 8.7254 14.3496C8.73669 14.3496 8.76659 14.3496 8.78733 14.3454C10.0536 14.277 11.2817 14.7926 12.1194 15.745C12.6755 16.3225 12.8329 17.1763 12.519 17.9143C11.9751 18.7926 11.0191 19.331 9.98618 19.3411C8.49997 19.3411 6.82798 17.8368 6.66752 14.5348H6.67485ZM38.6537 25.3335C38.4744 28.7374 36.742 31.8701 33.9544 33.8316C33.8812 33.5421 33.6216 33.3383 33.3226 33.3359C32.9547 33.3359 32.6564 33.6342 32.6564 34.0021V38.0009C32.6564 38.3688 32.3581 38.6672 31.9899 38.6672H27.325C26.9571 38.6672 26.6588 38.3688 26.6588 38.0009V36.0015C26.6588 35.6336 26.3604 35.3353 25.9922 35.3353C25.6244 35.3353 25.326 35.6336 25.326 36.0015V36.6181C24.5875 36.662 23.8291 36.6846 23.0488 36.6547C22.4716 36.6355 21.9 36.6092 21.3277 36.5827V36.0015C21.3277 35.6336 21.0291 35.3353 20.6612 35.3353C20.293 35.3353 19.9946 35.6336 19.9946 36.0015V38.0009C19.9946 38.3688 19.6963 38.6672 19.3284 38.6672H14.6635C14.2956 38.6672 13.9973 38.3688 13.9973 38.0009V34.6687C13.9973 34.3008 13.699 34.0021 13.3308 34.0021C12.9629 34.0021 12.6645 34.3008 12.6645 34.6687V35.3865C11.3897 35.0714 10.2317 34.399 9.32575 33.4485C9.22447 33.3304 9.1299 33.212 9.03595 33.0805C8.30291 32.0818 7.35725 31.2584 6.26699 30.6702C5.82101 30.4402 5.36038 30.2401 4.88816 30.0705C4.32259 29.881 3.78204 29.6236 3.27809 29.3042L3.1576 29.2248C2.8922 29.0674 2.64328 28.8835 2.4151 28.6757L1.34895 23.295C1.30716 23.0925 1.352 22.8817 1.4731 22.7139C1.58902 22.5488 1.7687 22.4399 1.96881 22.4131C3.16828 22.2554 4.7942 21.8695 5.72736 20.9289C6.19957 20.4512 6.65166 19.9482 7.08728 19.4631L7.1428 19.4009C7.88071 20.1907 8.90569 20.6495 9.98618 20.6739C11.5258 20.6663 12.9452 19.8414 13.7139 18.5073C14.2572 17.3188 14.0501 15.9216 13.185 14.9421C13.0379 14.7493 12.8744 14.5696 12.6963 14.4048C13.181 14.0775 13.6654 13.7679 14.1453 13.4973C14.9439 13.0531 15.7776 12.6742 16.6375 12.3643C16.9758 12.8823 17.3727 13.3594 17.8202 13.7865C17.0686 13.8991 16.5927 14.0055 16.5128 14.0235C16.154 14.1065 15.9301 14.4643 16.0131 14.8234C16.0958 15.1821 16.4539 15.4061 16.8126 15.3231C16.8959 15.3033 25.2412 13.4439 30.2572 17.2059C30.5515 17.4265 30.9695 17.367 31.1903 17.0726C31.4112 16.7779 31.3514 16.3603 31.057 16.1394C30.1132 15.443 29.0717 14.8902 27.9662 14.4988C28.63 14.025 29.2169 13.4518 29.7053 12.7987C30.0561 12.9448 30.3905 13.0906 30.7004 13.2413C35.7643 15.6858 38.8865 20.4314 38.6537 25.3335Z" fill="#8FFFE4"/>
<path d="M16.752 28H14.768C14.6933 28 14.656 27.96 14.656 27.88V22.4C14.656 22.32 14.6933 22.28 14.768 22.28H16.752C17.4293 22.28 17.9573 22.4613 18.336 22.824C18.72 23.1813 18.912 23.704 18.912 24.392V25.912C18.912 26.5893 18.72 27.1067 18.336 27.464C17.9573 27.8213 17.4293 28 16.752 28ZM15.624 23.168V27.096H16.752C17.5253 27.096 17.912 26.704 17.912 25.92V24.384C17.912 23.5733 17.5253 23.168 16.752 23.168H15.624ZM20.2485 28H19.4645C19.3738 28 19.3418 27.9547 19.3685 27.864L21.2885 22.376C21.3152 22.312 21.3578 22.28 21.4165 22.28H22.3285C22.3872 22.28 22.4298 22.312 22.4565 22.376L24.3765 27.864C24.4032 27.9547 24.3712 28 24.2805 28H23.4965C23.4218 28 23.3765 27.968 23.3605 27.904L22.9685 26.696H20.7765L20.3845 27.904C20.3632 27.968 20.3178 28 20.2485 28ZM21.8565 23.336L21.0485 25.824H22.6965L21.8885 23.336H21.8565ZM29.1977 28H28.2937C28.235 28 28.1897 27.9733 28.1577 27.92L26.7577 25.912H26.0457V27.88C26.0457 27.96 26.0084 28 25.9337 28H25.1977C25.123 28 25.0857 27.96 25.0857 27.88V22.4C25.0857 22.32 25.123 22.28 25.1977 22.28H27.0537C27.7097 22.28 28.219 22.4427 28.5817 22.768C28.9497 23.088 29.1337 23.5333 29.1337 24.104C29.1337 24.5413 29.0164 24.9067 28.7817 25.2C28.5524 25.4933 28.227 25.696 27.8057 25.808L29.2697 27.856C29.3284 27.952 29.3044 28 29.1977 28ZM27.0537 23.168H26.0457V25.048H27.0537C27.427 25.048 27.7017 24.9733 27.8777 24.824C28.059 24.6693 28.1497 24.432 28.1497 24.112C28.1497 23.7867 28.059 23.5493 27.8777 23.4C27.7017 23.2453 27.427 23.168 27.0537 23.168Z" fill="#8FFFE4"/>
</svg>
